<svg xmlns="http://www.w3.org/2000/svg" xmlns:xlink="http://www.w3.org/1999/xlink" width="300" height="300" viewBox="226050.0 1268050.0 275400.0 252900.0" preserveAspectRatio="xMinYMin meet"><g transform="matrix(1,0,0,-1,0,2789000.0)"><polyline fill="none" stroke="#66cc99" stroke-width="1836.0" points="487750.0,1278250.0 488250.0,1278750.0 488750.0,1278750.0 489250.0,1278750.0 489750.0,1278750.0 490250.0,1279250.0 490750.0,1279750.0 490750.0,1280250.0 491250.0,1280750.0 491250.0,1281250.0 491250.0,1281750.0 491250.0,1282250.0 491250.0,1282750.0 491250.0,1283250.0 490750.0,1283750.0 490750.0,1284250.0 490250.0,1284750.0 489750.0,1285250.0 489250.0,1285750.0 488750.0,1285750.0 488250.0,1286250.0 487750.0,1286250.0 487250.0,1286250.0 486750.0,1286750.0 486250.0,1287250.0 485750.0,1287750.0 485750.0,1288250.0 485250.0,1288750.0 484750.0,1289250.0 484750.0,1289750.0 484250.0,1290250.0 483750.0,1290750.0 483750.0,1291250.0 483250.0,1291750.0 483250.0,1292250.0 482750.0,1292750.0 482750.0,1293250.0 482250.0,1293750.0 482250.0,1294250.0 482250.0,1294750.0 482250.0,1295250.0 482250.0,1295750.0 481750.0,1296250.0 481750.0,1296750.0 481750.0,1297250.0 481250.0,1297750.0 481250.0,1298250.0 481250.0,1298750.0 481250.0,1299250.0 481250.0,1299750.0 481250.0,1300250.0 481250.0,1300750.0 481250.0,1301250.0 480750.0,1301750.0 480750.0,1302250.0 480750.0,1302750.0 480250.0,1303250.0 480250.0,1303750.0 479750.0,1304250.0 479250.0,1304750.0 479250.0,1305250.0 478750.0,1305750.0 478750.0,1306250.0 478250.0,1306750.0 477750.0,1307250.0 477250.0,1307750.0 476750.0,1307750.0 476250.0,1307250.0 475750.0,1307250.0 475250.0,1307250.0 474750.0,1307250.0 474250.0,1306750.0 473750.0,1306750.0 473250.0,1306750.0 472750.0,1306750.0 472250.0,1306750.0 471750.0,1306750.0 471250.0,1307250.0 470750.0,1307750.0 470250.0,1308250.0 470250.0,1308750.0 469750.0,1309250.0 469750.0,1309750.0 469250.0,1310250.0 469250.0,1310750.0 469250.0,1311250.0 468750.0,1311750.0 468750.0,1312250.0 468750.0,1312750.0 468750.0,1313250.0 468250.0,1313750.0 468250.0,1314250.0 468250.0,1314750.0 468250.0,1315250.0 467750.0,1315750.0 467750.0,1316250.0 467750.0,1316750.0 468250.0,1317250.0 468250.0,1317750.0 468750.0,1318250.0 468750.0,1318750.0 468750.0,1319250.0 468750.0,1319750.0 468750.0,1320250.0 469250.0,1320750.0 469250.0,1321250.0 469750.0,1321750.0 469750.0,1322250.0 469750.0,1322750.0 469750.0,1323250.0 469750.0,1323750.0 469750.0,1324250.0 469750.0,1324750.0 469750.0,1325250.0 470250.0,1325750.0 470250.0,1326250.0 470250.0,1326750.0 470250.0,1327250.0 470250.0,1327750.0 470750.0,1328250.0 470750.0,1328750.0 470750.0,1329250.0 470750.0,1329750.0 470750.0,1330250.0 470250.0,1330750.0 470250.0,1331250.0 470250.0,1331750.0 470250.0,1332250.0 470250.0,1332750.0 470250.0,1333250.0 469750.0,1333750.0 469750.0,1334250.0 469250.0,1334750.0 469250.0,1335250.0 468750.0,1335750.0 468750.0,1336250.0 468250.0,1336750.0 468250.0,1337250.0 468250.0,1337750.0 467750.0,1338250.0 467250.0,1338750.0 467250.0,1339250.0 467250.0,1339750.0 466750.0,1340250.0 466250.0,1340750.0 465750.0,1341250.0 465750.0,1341750.0 465250.0,1342250.0 464750.0,1342750.0 464750.0,1343250.0 464250.0,1343750.0 463750.0,1344250.0 463250.0,1344750.0 463250.0,1345250.0 463250.0,1345750.0 463250.0,1346250.0 463250.0,1346750.0 463250.0,1347250.0 463250.0,1347750.0 463250.0,1348250.0 463750.0,1348750.0 463750.0,1349250.0 463750.0,1349750.0 463750.0,1350250.0 463750.0,1350750.0 463750.0,1351250.0 464250.0,1351750.0 464250.0,1352250.0 464250.0,1352750.0 464250.0,1353250.0 464250.0,1353750.0 463750.0,1354250.0 463250.0,1354750.0 462750.0,1355250.0 462250.0,1355250.0 461750.0,1355750.0 461250.0,1355750.0 460750.0,1356250.0 460250.0,1356250.0 459750.0,1356250.0 459250.0,1356250.0 458750.0,1356250.0 458250.0,1356250.0 457750.0,1356250.0 457250.0,1356250.0 456750.0,1356750.0 456250.0,1356750.0 455750.0,1357250.0 455250.0,1357750.0 455250.0,1358250.0 454750.0,1358750.0 454250.0,1359250.0 454250.0,1359750.0 453750.0,1360250.0 453250.0,1360750.0 452750.0,1361250.0 452250.0,1361750.0 451750.0,1361750.0 451250.0,1362250.0 450750.0,1362750.0 450250.0,1363250.0 449750.0,1363750.0 449250.0,1364250.0 448750.0,1364750.0 448250.0,1365250.0 447750.0,1365250.0 447250.0,1365750.0 446750.0,1366250.0 446250.0,1366750.0 445750.0,1367250.0 445250.0,1367750.0 444750.0,1368250.0 444250.0,1368750.0 444250.0,1369250.0 443750.0,1369750.0 443750.0,1370250.0 443250.0,1370750.0 443250.0,1371250.0 442750.0,1371750.0 442750.0,1372250.0 442250.0,1372750.0 442250.0,1373250.0 442250.0,1373750.0 441750.0,1374250.0 441750.0,1374750.0 441250.0,1375250.0 440750.0,1375750.0 440250.0,1376250.0 439750.0,1376750.0 439250.0,1376750.0 438750.0,1377250.0 438250.0,1377750.0 437750.0,1378250.0 437250.0,1378250.0 436750.0,1378750.0 436250.0,1378750.0 435750.0,1378750.0 435250.0,1378750.0 434750.0,1378750.0 434250.0,1378750.0 433750.0,1378750.0 433250.0,1378750.0 432750.0,1378750.0 432250.0,1378750.0 431750.0,1378750.0 431250.0,1378750.0 430750.0,1378750.0 430250.0,1379250.0 429750.0,1379250.0 429250.0,1379250.0 428750.0,1379750.0 428250.0,1379750.0 427750.0,1380250.0 427250.0,1380750.0 426750.0,1380750.0 426250.0,1381250.0 425750.0,1381250.0 425250.0,1381750.0 424750.0,1381750.0 424250.0,1381750.0 423750.0,1382250.0 423250.0,1382250.0 422750.0,1382750.0 422250.0,1382750.0 421750.0,1383250.0 421250.0,1383250.0 420750.0,1383750.0 420250.0,1383750.0 419750.0,1383750.0 419250.0,1383750.0 418750.0,1384250.0 418250.0,1384250.0 417750.0,1384250.0 417250.0,1384250.0 416750.0,1384750.0 416250.0,1385250.0 415750.0,1385250.0 415250.0,1385250.0 414750.0,1385250.0 414250.0,1385250.0 413750.0,1385750.0 413250.0,1385750.0 412750.0,1385250.0 412250.0,1385250.0 411750.0,1385250.0 411250.0,1385250.0 410750.0,1385250.0 410250.0,1385250.0 409750.0,1385250.0 409250.0,1385250.0 408750.0,1385250.0 408250.0,1385250.0 407750.0,1385250.0 407250.0,1385250.0 406750.0,1385250.0 406250.0,1385250.0 405750.0,1385250.0 405250.0,1385250.0 404750.0,1385250.0 404250.0,1385250.0 403750.0,1385250.0 403250.0,1385250.0 402750.0,1385250.0 402250.0,1385250.0 401750.0,1384750.0 401250.0,1384750.0 400750.0,1384750.0 400250.0,1384750.0 399750.0,1384750.0 399250.0,1384750.0 398750.0,1384750.0 398250.0,1384750.0 397750.0,1384750.0 397250.0,1384750.0 396750.0,1384750.0 396250.0,1384750.0 395750.0,1384750.0 395250.0,1384750.0 394750.0,1384750.0 394250.0,1384750.0 393750.0,1384750.0 393250.0,1384750.0 392750.0,1384750.0 392250.0,1384750.0 391750.0,1384750.0 391250.0,1384750.0 390750.0,1384750.0 390250.0,1384750.0 389750.0,1384750.0 389250.0,1384750.0 388750.0,1384750.0 388250.0,1385250.0 387750.0,1385250.0 387250.0,1385250.0 386750.0,1385250.0 386250.0,1385250.0 385750.0,1385250.0 385250.0,1385250.0 384750.0,1385250.0 384250.0,1385250.0 383750.0,1385250.0 383250.0,1385250.0 382750.0,1385250.0 382250.0,1385750.0 381750.0,1385750.0 381250.0,1386250.0 380750.0,1386250.0 380250.0,1386750.0 379750.0,1386750.0 379250.0,1387250.0 378750.0,1387250.0 378250.0,1387250.0 377750.0,1387750.0 377250.0,1387750.0 376750.0,1388250.0 376250.0,1388250.0 375750.0,1388250.0 375250.0,1388750.0 374750.0,1389250.0 374250.0,1389750.0 373750.0,1389750.0 373250.0,1390250.0 372750.0,1390750.0 372250.0,1390750.0 371750.0,1391250.0 371250.0,1391250.0 370750.0,1391750.0 370250.0,1391750.0 369750.0,1392250.0 369250.0,1392750.0 368750.0,1392750.0 368250.0,1393250.0 367750.0,1393750.0 367250.0,1393750.0 366750.0,1394250.0 366250.0,1394250.0 365750.0,1394750.0 365250.0,1395250.0 364750.0,1395250.0 364250.0,1395750.0 363750.0,1396250.0 363250.0,1396250.0 362750.0,1396750.0 362250.0,1396750.0 361750.0,1397250.0 361250.0,1397250.0 360750.0,1397750.0 360250.0,1397750.0 359750.0,1398250.0 359250.0,1398250.0 358750.0,1398750.0 358250.0,1398750.0 357750.0,1398750.0 357250.0,1399250.0 356750.0,1399250.0 356250.0,1399750.0 355750.0,1399750.0 355250.0,1400250.0 354750.0,1400250.0 354250.0,1400250.0 353750.0,1400750.0 353250.0,1400750.0 352750.0,1400750.0 352250.0,1401250.0 351750.0,1401250.0 351250.0,1401750.0 350750.0,1402250.0 350750.0,1402750.0 350250.0,1403250.0 349750.0,1403250.0 349250.0,1403750.0 348750.0,1404250.0 348250.0,1404250.0 347750.0,1404250.0 347250.0,1404750.0 346750.0,1404750.0 346250.0,1404750.0 345750.0,1404750.0 345250.0,1404750.0 344750.0,1404750.0 344250.0,1405250.0 343750.0,1405250.0 343250.0,1405250.0 342750.0,1405750.0 342250.0,1405750.0 341750.0,1405750.0 341250.0,1405750.0 340750.0,1406250.0 340250.0,1406250.0 339750.0,1406250.0 339250.0,1406750.0 338750.0,1406750.0 338250.0,1406750.0 337750.0,1406750.0 337250.0,1406750.0 336750.0,1407250.0 336250.0,1407250.0 335750.0,1407750.0 335250.0,1408250.0 334750.0,1408250.0 334250.0,1408750.0 333750.0,1409250.0 333750.0,1409750.0 333250.0,1410250.0 332750.0,1410250.0 332250.0,1410750.0 332250.0,1411250.0 332250.0,1411750.0 331750.0,1412250.0 331750.0,1412750.0 331250.0,1413250.0 330750.0,1413750.0 330250.0,1414250.0 330250.0,1414750.0 329750.0,1415250.0 329250.0,1415750.0 329250.0,1416250.0 328750.0,1416750.0 328250.0,1417250.0 327750.0,1417750.0 327250.0,1418250.0 327250.0,1418750.0 326750.0,1419250.0 326750.0,1419750.0 326250.0,1420250.0 325750.0,1420750.0 325250.0,1421250.0 325250.0,1421750.0 324750.0,1422250.0 324250.0,1422750.0 324250.0,1423250.0 324250.0,1423750.0 323750.0,1424250.0 323750.0,1424750.0 323750.0,1425250.0 323250.0,1425750.0 323250.0,1426250.0 323250.0,1426750.0 322750.0,1427250.0 322750.0,1427750.0 322750.0,1428250.0 322250.0,1428750.0 322250.0,1429250.0 321750.0,1429750.0 321750.0,1430250.0 321250.0,1430750.0 321250.0,1431250.0 320750.0,1431750.0 320250.0,1432250.0 319750.0,1432750.0 319750.0,1433250.0 319750.0,1433750.0 319250.0,1434250.0 319250.0,1434750.0 318750.0,1435250.0 318750.0,1435750.0 318250.0,1436250.0 317750.0,1436750.0 317750.0,1437250.0 317250.0,1437750.0 317250.0,1438250.0 317250.0,1438750.0 316750.0,1439250.0 316750.0,1439750.0 316250.0,1440250.0 315750.0,1440750.0 315250.0,1441250.0 314750.0,1441750.0 314250.0,1441750.0 313750.0,1441750.0 313250.0,1442250.0 312750.0,1442750.0 312250.0,1443250.0 311750.0,1443750.0 311250.0,1444250.0 310750.0,1444750.0 310250.0,1445250.0 309750.0,1445750.0 309250.0,1446250.0 308750.0,1446750.0 308250.0,1446750.0 307750.0,1447250.0 307250.0,1447250.0 306750.0,1447250.0 306250.0,1447750.0 305750.0,1448250.0 305750.0,1448750.0 305250.0,1449250.0 304750.0,1449250.0 304250.0,1449750.0 303750.0,1449750.0 303250.0,1449250.0 302750.0,1449250.0 302250.0,1449250.0 301750.0,1449250.0 301250.0,1449250.0 300750.0,1449750.0 300250.0,1449750.0 299750.0,1449750.0 299250.0,1449750.0 298750.0,1449750.0 298250.0,1450250.0 298250.0,1450750.0 298250.0,1451250.0 298250.0,1451750.0 297750.0,1452250.0 297250.0,1452750.0 296750.0,1453250.0 296250.0,1453750.0 295750.0,1454250.0 295750.0,1454750.0 295750.0,1455250.0 295750.0,1455750.0 295250.0,1456250.0 295250.0,1456750.0 295250.0,1457250.0 295250.0,1457750.0 295250.0,1458250.0 295250.0,1458750.0 295250.0,1459250.0 295250.0,1459750.0 295250.0,1460250.0 295250.0,1460750.0 295250.0,1461250.0 295250.0,1461750.0 295250.0,1462250.0 295250.0,1462750.0 294750.0,1463250.0 294250.0,1463750.0 294250.0,1464250.0 293750.0,1464750.0 293250.0,1465250.0 293250.0,1465750.0 293250.0,1466250.0 293250.0,1466750.0 292750.0,1467250.0 293250.0,1467750.0 293250.0,1468250.0 293250.0,1468750.0 292750.0,1469250.0 292250.0,1469750.0 292250.0,1470250.0 291750.0,1470750.0 291250.0,1471250.0 291250.0,1471750.0 290750.0,1472250.0 290750.0,1472750.0 290750.0,1473250.0 290250.0,1473750.0 289750.0,1474250.0 289750.0,1474750.0 289250.0,1475250.0 289250.0,1475750.0 288750.0,1476250.0 288250.0,1476750.0 288250.0,1477250.0 287750.0,1477750.0 287250.0,1478250.0 287250.0,1478750.0 286750.0,1479250.0 286750.0,1479750.0 286250.0,1480250.0 286250.0,1480750.0 285750.0,1481250.0 285750.0,1481750.0 285250.0,1482250.0 285250.0,1482750.0 285250.0,1483250.0 285250.0,1483750.0 285250.0,1484250.0 285250.0,1484750.0 285250.0,1485250.0 285250.0,1485750.0 285250.0,1486250.0 285250.0,1486750.0 285250.0,1487250.0 285250.0,1487750.0 285250.0,1488250.0 285250.0,1488750.0 285250.0,1489250.0 284750.0,1489750.0 284750.0,1490250.0 284750.0,1490750.0 284750.0,1491250.0 285250.0,1491750.0 285250.0,1492250.0 285250.0,1492750.0 285250.0,1493250.0 285250.0,1493750.0 285250.0,1494250.0 285250.0,1494750.0 285250.0,1495250.0 285750.0,1495750.0 285750.0,1496250.0 285750.0,1496750.0 286250.0,1497250.0 285750.0,1497750.0 285250.0,1498250.0 284750.0,1498250.0 284250.0,1498750.0 283750.0,1498750.0 283250.0,1498750.0 282750.0,1498750.0 282250.0,1499250.0 281750.0,1499750.0 281750.0,1500250.0 281750.0,1500750.0 281750.0,1501250.0 281250.0,1501750.0 280750.0,1502250.0 280250.0,1502750.0 279750.0,1502750.0 279250.0,1502750.0 278750.0,1502750.0 278250.0,1502750.0 277750.0,1502750.0 277250.0,1502750.0 276750.0,1502750.0 276250.0,1502750.0 275750.0,1502250.0 275250.0,1501750.0 274750.0,1501750.0 274250.0,1502250.0 273750.0,1502250.0 273250.0,1502250.0 272750.0,1502250.0 272250.0,1502250.0 271750.0,1502250.0 271250.0,1502250.0 270750.0,1502250.0 270250.0,1502750.0 269750.0,1502750.0 269250.0,1502750.0 268750.0,1502750.0 268250.0,1502750.0 267750.0,1503250.0 267250.0,1503250.0 266750.0,1503250.0 266250.0,1503250.0 265750.0,1503750.0 265250.0,1503750.0 264750.0,1503750.0 264250.0,1504250.0 263750.0,1504250.0 263250.0,1504250.0 262750.0,1504250.0 262250.0,1504750.0 261750.0,1504750.0 261250.0,1504750.0 260750.0,1504750.0 260250.0,1505250.0 259750.0,1505250.0 259250.0,1505250.0 258750.0,1505750.0 258250.0,1505750.0 257750.0,1505750.0 257250.0,1505750.0 256750.0,1505750.0 256250.0,1506250.0 255750.0,1506250.0 255250.0,1506250.0 254750.0,1506750.0 254250.0,1506750.0 253750.0,1506750.0 253250.0,1506750.0 252750.0,1506750.0 252250.0,1506750.0 251750.0,1507250.0 251250.0,1507250.0 250750.0,1507250.0 250250.0,1507250.0 249750.0,1507250.0 249250.0,1507750.0 248750.0,1507750.0 248250.0,1507750.0 247750.0,1507750.0 247250.0,1507750.0 246750.0,1507750.0 246250.0,1507750.0 245750.0,1507750.0 245250.0,1507750.0 244750.0,1507750.0 244250.0,1507750.0 243750.0,1507750.0 243250.0,1508250.0 242750.0,1508250.0 242250.0,1508250.0 241750.0,1508250.0 241250.0,1508250.0 240750.0,1508250.0 240250.0,1508250.0 239750.0,1508750.0 239250.0,1508750.0 238750.0,1508750.0 238250.0,1509250.0 237750.0,1509250.0 237250.0,1509750.0 236750.0,1510250.0 236250.0,1510750.0" opacity="0.8" /></g></svg>